<svg width="16" height="16" viewBox="0 0 16 16" fill="none" xmlns="http://www.w3.org/2000/svg">
<path d="M6.70277 1.10549C7.45028 0.468467 8.54972 0.468468 9.29723 1.1055L9.95641 1.66724C10.2767 1.94022 10.675 2.10519 11.0945 2.13867L11.9579 2.20757C12.9369 2.28569 13.7143 3.06311 13.7924 4.04213L13.8613 4.90545C13.8948 5.32499 14.0598 5.72326 14.3328 6.04359L14.8945 6.70277C15.5315 7.45028 15.5315 8.54972 14.8945 9.29723L14.3328 9.95641C14.0598 10.2767 13.8948 10.675 13.8613 11.0945L13.7924 11.9579C13.7143 12.9369 12.9369 13.7143 11.9579 13.7924L11.0945 13.8613C10.675 13.8948 10.2767 14.0598 9.95641 14.3328L9.29723 14.8945C8.54972 15.5315 7.45028 15.5315 6.70276 14.8945L6.04359 14.3328C5.72326 14.0598 5.32498 13.8948 4.90545 13.8613L4.04213 13.7924C3.06311 13.7143 2.28569 12.9369 2.20757 11.9579L2.13867 11.0945C2.10519 10.675 1.94022 10.2767 1.66724 9.95641L1.10549 9.29723C0.468467 8.54972 0.468468 7.45028 1.1055 6.70277L1.66724 6.04359C1.94022 5.72326 2.10519 5.32498 2.13867 4.90545L2.20757 4.04213C2.28569 3.06311 3.06311 2.28569 4.04213 2.20757L4.90545 2.13867C5.32499 2.10519 5.72326 1.94022 6.04359 1.66724L6.70277 1.10549Z" fill="url(#paint0_linear_1_2426)"/>
<path d="M7.02707 1.48605C7.58771 1.00828 8.41229 1.00828 8.97293 1.48605L9.6321 2.0478C10.0325 2.38902 10.5304 2.59524 11.0548 2.63709L11.9181 2.70598C12.6524 2.76458 13.2354 3.34764 13.294 4.08191L13.3629 4.94523C13.4048 5.46964 13.611 5.96749 13.9522 6.3679L14.5139 7.02707C14.9917 7.58771 14.9917 8.41229 14.5139 8.97293L13.9522 9.6321C13.611 10.0325 13.4048 10.5304 13.3629 11.0548L13.294 11.9181C13.2354 12.6524 12.6524 13.2354 11.9181 13.294L11.0548 13.3629C10.5304 13.4048 10.0325 13.611 9.6321 13.9522L8.97293 14.5139C8.41229 14.9917 7.58771 14.9917 7.02707 14.5139L6.3679 13.9522C5.96749 13.611 5.46964 13.4048 4.94523 13.3629L4.08191 13.294C3.34764 13.2354 2.76458 12.6524 2.70598 11.9181L2.63709 11.0548C2.59524 10.5304 2.38902 10.0325 2.0478 9.6321L1.48605 8.97293C1.00828 8.41229 1.00828 7.58771 1.48605 7.02707L2.0478 6.3679C2.38902 5.96749 2.59524 5.46964 2.63709 4.94523L2.70598 4.08191C2.76458 3.34764 3.34764 2.76458 4.08191 2.70598L4.94523 2.63709C5.46964 2.59524 5.96749 2.38902 6.3679 2.0478L7.02707 1.48605Z" stroke="black" stroke-opacity="0.1"/>
<defs>
<linearGradient id="paint0_linear_1_2426" x1="8" y1="0" x2="8" y2="16" gradientUnits="userSpaceOnUse">
<stop stop-color="#0074CC"/>
<stop offset="1" stop-color="#47AFFF"/>
</linearGradient>
</defs>
</svg>
