<svg width="14" height="12" viewBox="0 0 14 12" fill="none" xmlns="http://www.w3.org/2000/svg">
<g filter="url(#filter0_d_19_37)">
<path d="M10.9142 2.20587C10.8599 2.1512 10.7954 2.1078 10.7243 2.07819C10.6532 2.04857 10.577 2.03333 10.5 2.03333C10.423 2.03333 10.3467 2.04857 10.2757 2.07819C10.2046 2.1078 10.1401 2.1512 10.0858 2.20587L5.73999 6.55754L3.91416 4.72587C3.85785 4.67148 3.79139 4.62872 3.71856 4.60002C3.64572 4.57131 3.56795 4.55724 3.48968 4.55859C3.41141 4.55995 3.33417 4.5767 3.26237 4.60791C3.19058 4.63911 3.12563 4.68415 3.07124 4.74046C3.01685 4.79676 2.97409 4.86323 2.94538 4.93606C2.91668 5.00889 2.9026 5.08666 2.90396 5.16494C2.90531 5.24321 2.92207 5.32045 2.95328 5.39224C2.98448 5.46404 3.02952 5.52899 3.08582 5.58337L5.32582 7.82337C5.38005 7.87805 5.44457 7.92145 5.51565 7.95106C5.58674 7.98068 5.66298 7.99592 5.73999 7.99592C5.817 7.99592 5.89324 7.98068 5.96433 7.95106C6.03541 7.92145 6.09993 7.87805 6.15416 7.82337L10.9142 3.06337C10.9734 3.00875 11.0206 2.94245 11.0529 2.86866C11.0853 2.79487 11.102 2.71518 11.102 2.63462C11.102 2.55406 11.0853 2.47438 11.0529 2.40059C11.0206 2.3268 10.9734 2.2605 10.9142 2.20587Z" fill="white"/>
</g>
<defs>
<filter id="filter0_d_19_37" x="-1.09613" y="0.0333252" width="16.1981" height="13.9626" filterUnits="userSpaceOnUse" color-interpolation-filters="sRGB">
<feFlood flood-opacity="0" result="BackgroundImageFix"/>
<feColorMatrix in="SourceAlpha" type="matrix" values="0 0 0 0 0 0 0 0 0 0 0 0 0 0 0 0 0 0 127 0" result="hardAlpha"/>
<feOffset dy="2"/>
<feGaussianBlur stdDeviation="2"/>
<feComposite in2="hardAlpha" operator="out"/>
<feColorMatrix type="matrix" values="0 0 0 0 0 0 0 0 0 0 0 0 0 0 0 0 0 0 0.3 0"/>
<feBlend mode="normal" in2="BackgroundImageFix" result="effect1_dropShadow_19_37"/>
<feBlend mode="normal" in="SourceGraphic" in2="effect1_dropShadow_19_37" result="shape"/>
</filter>
</defs>
</svg>
